<?xml version="1.0" standalone="no"?>
<!DOCTYPE svg PUBLIC "-//W3C//DTD SVG 20010904//EN"
 "http://www.w3.org/TR/2001/REC-SVG-20010904/DTD/svg10.dtd">
<svg version="1.0" xmlns="http://www.w3.org/2000/svg"
 width="120.000000pt" height="120.000000pt" viewBox="0 0 120.000000 120.000000"
 preserveAspectRatio="xMidYMid meet">
<metadata>
Created by potrace 1.14, written by Peter Selinger 2001-2017
</metadata>
<g transform="translate(0.000000,120.000000) scale(0.100000,-0.100000)"
fill="#000000" stroke="none">
<path d="M9 1198 c-8 -13 -5 -216 3 -225 9 -12 41 -7 34 6 -2 3 8 7 22 8 27 1
27 1 4 -11 -12 -7 -19 -16 -15 -21 4 -4 1 -6 -8 -2 -9 3 -22 0 -29 -6 -10 -9
-11 -9 -6 0 3 6 2 14 -4 18 -14 9 -11 -106 4 -124 8 -11 8 -13 -1 -8 -9 6 -12
-5 -11 -39 0 -41 2 -45 13 -31 12 16 13 16 26 0 12 -15 12 -16 -4 -10 -11 4
-17 1 -17 -9 0 -8 -4 -12 -10 -9 -5 3 -10 1 -10 -4 0 -6 5 -11 11 -11 6 0 7
-5 2 -12 -9 -15 -13 -119 -3 -113 3 2 12 -1 20 -6 12 -8 11 -9 -5 -7 -18 3
-20 -3 -20 -57 0 -33 4 -63 10 -67 6 -5 5 -8 -2 -8 -7 0 -13 -6 -13 -14 0 -10
8 -13 21 -11 12 3 18 1 15 -3 -4 -4 -13 -7 -19 -7 -16 0 -19 -57 -4 -67 9 -6
9 -8 0 -8 -7 0 -13 -11 -13 -25 0 -14 5 -25 11 -25 6 0 8 7 4 17 -5 15 -4 16
7 5 11 -11 10 -15 -3 -25 -18 -13 -21 -80 -5 -106 6 -10 5 -12 -2 -7 -7 4 -12
2 -12 -3 0 -6 5 -11 11 -11 8 0 8 -4 2 -13 -6 -6 -10 -37 -11 -69 -1 -47 2
-56 16 -54 9 2 15 7 12 12 -3 5 -8 8 -11 7 -3 -1 -5 8 -5 20 1 12 6 22 11 23
6 0 9 -7 7 -17 -2 -9 2 -20 8 -24 8 -5 8 -11 -1 -21 -6 -7 -15 -12 -19 -9 -5
3 -11 1 -14 -4 -3 -4 28 -9 69 -9 56 -1 74 2 68 11 -5 9 -3 9 8 1 22 -16 160
-19 170 -2 6 9 9 10 9 1 0 -17 311 -16 322 1 6 8 8 7 8 -1 0 -7 7 -13 16 -13
9 0 12 5 8 13 -6 9 -4 9 7 0 7 -7 20 -13 28 -12 11 0 10 3 -4 9 -19 8 -19 9 3
9 25 1 30 16 8 24 -8 3 -17 1 -20 -6 -2 -7 -5 -4 -5 5 -1 9 -8 21 -17 26 -11
6 -13 11 -5 16 6 4 11 2 11 -3 0 -16 16 -13 34 5 9 8 16 11 16 5 0 -5 -8 -15
-17 -20 -16 -10 -16 -11 5 -17 19 -5 22 -12 18 -30 -5 -20 -2 -24 14 -24 14 0
19 4 14 13 -6 9 -4 9 7 0 7 -7 18 -13 23 -13 6 0 4 5 -4 10 -9 6 -10 10 -3 10
6 0 14 -4 17 -8 8 -14 280 -11 288 2 5 8 8 7 8 -1 0 -7 7 -13 15 -13 8 0 15 6
15 13 0 7 3 8 8 2 10 -14 52 -17 52 -4 0 5 -6 7 -12 3 -9 -5 -9 -2 1 9 10 12
10 21 3 30 -11 13 -11 33 -1 52 11 20 4 70 -9 67 -8 -1 -12 3 -9 10 2 7 9 12
14 11 6 -1 10 32 10 78 1 67 -1 78 -13 68 -8 -6 -11 -15 -8 -20 3 -5 -2 -9
-10 -9 -22 0 -20 9 7 31 25 19 35 79 14 79 -7 0 -6 4 2 9 12 8 11 13 -9 29
-16 13 -20 21 -11 26 7 4 10 2 9 -5 -2 -6 2 -13 8 -15 6 -3 11 12 11 35 l1 39
-25 -26 c-24 -26 -24 -26 1 9 31 42 32 49 9 49 -16 1 -16 2 -3 13 8 7 16 24
18 39 3 23 0 26 -20 22 l-23 -5 23 17 c23 17 29 57 13 84 -6 8 -7 19 -3 25 12
18 12 45 1 42 -7 -1 -12 8 -14 21 -2 24 10 30 18 10 3 -7 6 15 6 50 1 57 -5
72 -22 55 -4 -3 -2 -12 4 -20 8 -9 8 -13 1 -13 -15 0 -31 32 -24 49 3 8 0 11
-7 7 -6 -4 -11 -5 -11 -2 0 3 9 10 20 16 16 9 18 8 14 -5 -4 -8 -2 -15 4 -15
18 0 24 34 7 46 -9 7 -12 15 -6 18 5 3 11 1 13 -6 3 -7 5 31 6 85 1 76 -2 97
-13 97 -8 0 -17 -4 -20 -10 -3 -5 -14 -10 -23 -10 -15 0 -15 2 -2 10 11 7 9 9
-10 8 -14 -1 -31 -6 -39 -12 -11 -8 -13 -8 -7 2 5 8 0 12 -15 12 -21 0 -22 -1
-4 -20 10 -11 14 -20 9 -20 -5 0 -15 9 -22 21 -9 15 -21 19 -44 17 -39 -4 -48
-25 -16 -38 20 -9 19 -10 -10 -5 -23 3 -31 1 -26 -7 5 -7 3 -8 -5 -3 -9 5 -10
10 -2 18 30 30 11 34 -169 34 -99 0 -180 -4 -180 -8 0 -4 7 -15 16 -23 14 -15
11 -20 -9 -17 -4 0 -7 -6 -7 -14 0 -8 -4 -15 -10 -15 -5 0 -7 7 -4 15 6 14
-10 20 -42 16 -7 -1 -15 6 -18 15 -5 14 -4 15 8 5 10 -8 16 -9 21 -1 3 5 12
10 18 10 7 0 6 -4 -3 -10 -8 -5 -10 -10 -5 -10 6 0 16 4 23 9 10 6 10 10 -1
19 -19 16 -89 11 -83 -5 3 -7 -1 -10 -9 -6 -8 3 -12 9 -9 14 3 6 -10 9 -31 7
-20 -1 -39 -6 -42 -11 -2 -4 -10 -4 -17 2 -13 11 -34 10 -53 -2 -7 -5 -13 -4
-13 1 0 5 -45 10 -100 10 -99 0 -100 -1 -100 -24 0 -13 -4 -24 -9 -24 -5 0 -8
11 -5 25 4 21 1 25 -20 25 -20 0 -24 -4 -21 -20 2 -11 0 -18 -6 -15 -5 4 -9
13 -9 21 0 8 -5 14 -11 14 -5 0 -7 -6 -3 -12 6 -10 4 -10 -7 0 -12 11 -27 16
-30 10z m21 -33 c14 -19 14 -19 -2 -6 -10 7 -18 18 -18 24 0 6 1 8 3 6 1 -2 9
-13 17 -24z m145 15 c4 -6 11 -7 17 -4 7 5 8 2 3 -5 -5 -9 -11 -9 -17 -3 -6 6
-17 8 -24 5 -8 -3 -14 0 -14 6 0 14 27 15 35 1z m870 -19 c-6 -5 -25 10 -25
20 0 5 6 4 14 -3 8 -7 12 -15 11 -17z m-654 2 c13 -16 12 -17 -3 -4 -10 7 -18
15 -18 17 0 8 8 3 21 -13z m269 7 c0 -5 -2 -10 -4 -10 -3 0 -8 5 -11 10 -3 6
-1 10 4 10 6 0 11 -4 11 -10z m52 -2 c-7 -7 -8 -17 -2 -28 6 -11 5 -17 -4 -17
-6 0 -17 11 -24 25 -9 20 -8 23 4 18 7 -3 14 -1 14 4 0 6 5 10 12 10 9 0 9 -3
0 -12z m408 2 c0 -5 -5 -10 -11 -10 -5 0 -7 5 -4 10 3 6 8 10 11 10 2 0 4 -4
4 -10z m-684 -35 c-1 -8 -6 -18 -11 -22 -4 -4 -5 2 -2 15 3 12 1 22 -4 22 -5
0 -9 5 -9 11 0 8 4 8 14 0 8 -7 13 -18 12 -26z m297 20 c-3 -9 -8 -14 -10 -11
-3 3 -2 9 2 15 9 16 15 13 8 -4z m111 -1 c9 -24 2 -26 -12 -4 -7 11 -8 20 -3
20 5 0 12 -7 15 -16z m42 4 c-10 -6 -22 -6 -26 -2 -5 5 3 10 18 11 22 1 24 0
8 -9z m299 -54 c-2 -10 -4 -23 -4 -27 -1 -5 -6 -5 -12 -2 -6 4 -8 13 -5 21 3
8 -1 14 -10 14 -8 0 -12 -4 -9 -10 3 -5 1 -10 -4 -10 -18 0 -12 19 10 31 15 8
18 14 10 22 -6 6 -11 15 -11 20 0 5 9 -1 19 -15 11 -13 18 -33 16 -44z m-935
1 c0 -4 -6 -2 -13 4 -8 6 -18 7 -22 3 -5 -4 -5 -2 -1 5 3 6 2 14 -4 18 -5 3
-10 10 -10 15 0 5 11 -1 25 -14 14 -13 25 -27 25 -31z m-62 -2 c-5 -7 -7 -17
-3 -23 4 -7 1 -10 -6 -9 -17 3 -49 -11 -49 -21 0 -4 12 -6 28 -4 16 2 19 1 7
-3 -11 -3 -25 -12 -31 -21 -9 -12 -13 -12 -19 -2 -5 9 -4 11 3 6 18 -11 14 3
-8 32 l-20 25 22 24 c26 27 38 29 38 6 0 -14 -2 -15 -9 -4 -5 8 -11 9 -15 3
-3 -6 -2 -13 4 -17 6 -4 8 -11 5 -16 -4 -5 -2 -9 4 -9 10 0 35 36 37 55 4 27
6 29 13 10 5 -11 4 -25 -1 -32z m612 37 c0 -5 -4 -10 -10 -10 -5 0 -10 -4 -10
-10 0 -14 23 -8 37 10 10 13 12 12 10 -6 0 -11 -8 -21 -17 -21 -8 -1 -20 -3
-25 -5 -12 -4 -15 4 -15 32 0 11 7 20 15 20 8 0 15 -4 15 -10z m292 -8 c-2 -7
-8 -10 -11 -5 -3 5 -16 8 -28 7 -12 -1 -21 2 -19 5 2 3 18 6 34 6 21 1 28 -3
24 -13z m-1027 -3 c-3 -4 1 -9 9 -12 9 -4 12 -14 9 -26 -6 -24 -25 -17 -21 7
2 11 -3 17 -14 16 -9 -1 -14 4 -12 11 3 6 11 12 19 12 8 0 12 -4 10 -8z m256
-20 l-21 -18 22 -15 c12 -9 18 -19 14 -23 -5 -5 -11 -2 -13 5 -3 6 -10 9 -15
6 -7 -4 -8 -2 -4 4 4 7 1 12 -9 12 -9 0 -14 4 -10 9 3 6 -2 14 -11 19 -15 8
-15 10 0 15 9 4 15 3 13 -1 -1 -4 1 -8 6 -9 16 -6 27 -3 27 8 0 5 -5 7 -12 3
-7 -4 -8 -3 -4 4 4 6 14 8 23 5 14 -6 13 -9 -6 -24z m617 14 c12 -26 9 -46 -8
-50 -10 -3 -11 -2 -4 4 16 11 -2 57 -17 47 -8 -4 -9 -3 -5 4 10 17 24 15 34
-5z m-553 -11 c-3 -3 -11 0 -18 7 -9 10 -8 11 6 5 10 -3 15 -9 12 -12z m135
-2 c-7 -4 -17 -14 -22 -21 -8 -11 -9 -11 -5 2 3 9 1 21 -5 27 -6 6 -1 8 17 4
17 -3 22 -7 15 -12z m120 16 c0 -2 -7 -7 -16 -10 -8 -3 -12 -2 -9 4 6 10 25
14 25 6z m-77 -21 c-3 -9 -8 -14 -10 -11 -3 3 -2 9 2 15 9 16 15 13 8 -4z
m494 -3 c-10 -10 -14 -22 -10 -27 5 -4 2 -5 -5 -1 -11 6 -10 12 4 27 9 10 19
19 22 19 3 0 -2 -8 -11 -18z m59 -19 c-3 -4 -6 -1 -6 7 0 10 -3 10 -14 1 -11
-9 -16 -9 -22 0 -4 7 -3 9 3 6 6 -4 14 1 18 11 6 16 7 16 17 -1 5 -10 7 -21 4
-24z m-521 17 c-3 -5 1 -10 11 -10 14 0 14 -3 4 -15 -11 -13 -14 -13 -25 2
-10 14 -10 20 -2 25 16 10 19 10 12 -2z m150 -10 c-3 -5 -14 -6 -25 -3 -11 3
-18 9 -15 13 3 5 14 6 25 3 11 -3 18 -9 15 -13z m-365 6 c0 -2 -6 -9 -14 -15
-11 -9 -16 -9 -22 0 -4 7 -3 9 4 5 6 -3 13 -2 17 4 6 10 15 14 15 6z m160 0
c0 -2 -7 -7 -16 -10 -8 -3 -12 -2 -9 4 6 10 25 14 25 6z m305 -6 c-3 -5 -12
-10 -18 -10 -7 0 -6 4 3 10 19 12 23 12 15 0z m22 -12 c-3 -8 -6 -5 -6 6 -1
11 2 17 5 13 3 -3 4 -12 1 -19z m-601 5 c-10 -11 -37 -12 -30 -2 3 5 12 9 21
9 9 0 13 -3 9 -7z m-234 -10 c-9 -4 -10 -8 -2 -18 8 -10 8 -15 -1 -21 -7 -4
-9 -3 -5 4 3 6 2 13 -4 17 -13 8 -3 25 13 24 8 0 8 -2 -1 -6z m776 -8 c12 1
22 -2 22 -7 0 -14 -54 -3 -58 13 -2 9 -1 10 5 3 4 -6 18 -10 31 -9z m202 3 c0
-18 -13 -33 -30 -36 -11 -2 -10 2 4 12 10 8 15 19 11 25 -3 6 -1 11 4 11 6 0
11 -6 11 -12z m-566 -13 c-6 -14 -29 -25 -49 -24 -5 0 -13 -8 -17 -18 -7 -16
-8 -16 -5 2 2 11 9 19 15 18 7 -2 12 4 12 12 0 8 5 15 11 15 5 0 7 -6 4 -12
-3 -7 0 -5 7 5 16 21 30 23 22 2z m103 9 c-3 -3 -12 -4 -19 -1 -8 3 -5 6 6 6
11 1 17 -2 13 -5z m57 -26 c4 3 4 -2 0 -13 -7 -18 -6 -18 9 -6 9 7 17 21 18
30 0 9 3 11 5 4 6 -14 -13 -53 -25 -53 -5 0 -19 17 -30 38 -18 31 -19 34 -2
15 10 -12 22 -19 25 -15z m64 20 c-2 -7 3 -12 11 -13 8 0 16 -6 19 -14 3 -8 0
-11 -6 -7 -7 4 -19 -2 -29 -14 -10 -11 -21 -20 -26 -20 -4 0 1 10 12 22 14 14
18 25 11 33 -5 7 -7 15 -3 18 10 10 13 8 11 -5z m62 6 c0 -8 -19 -13 -24 -6
-3 5 1 9 9 9 8 0 15 -2 15 -3z m157 -16 c-3 -8 -6 -5 -6 6 -1 11 2 17 5 13 3
-3 4 -12 1 -19z m186 -3 c-9 -15 -11 -15 -24 1 -8 10 -9 15 -2 11 6 -4 15 -2
18 4 11 17 18 2 8 -16z m-982 -24 c-1 -2 3 -8 11 -13 10 -8 10 -9 -2 -5 -8 2
-15 9 -15 15 0 5 -3 14 -7 18 -5 4 -8 12 -8 18 0 6 6 2 12 -9 7 -11 11 -22 9
-24z m175 32 c-3 -3 -1 -14 4 -24 6 -10 6 -20 1 -23 -5 -3 -12 5 -15 18 -4 18
-12 23 -31 21 -14 -2 -27 0 -30 5 -3 4 14 8 36 8 23 1 39 -2 35 -5z m239 -13
c10 -11 14 -20 9 -20 -5 0 -15 9 -22 20 -7 11 -11 20 -9 20 2 0 12 -9 22 -20z
m449 12 c2 -4 -4 -8 -14 -8 -10 0 -16 4 -14 8 3 4 9 8 14 8 5 0 11 -4 14 -8z
m-184 -24 c0 -17 -3 -19 -9 -9 -7 11 -10 9 -16 -8 -7 -23 -20 -27 -30 -11 -4
6 -1 9 7 8 7 -2 12 5 12 14 -1 10 2 16 6 13 5 -3 11 -1 15 5 10 16 15 12 15
-12z m345 12 c3 -5 -1 -10 -10 -10 -9 0 -13 5 -10 10 3 6 8 10 10 10 2 0 7 -4
10 -10z m-801 -16 c19 -19 21 -31 3 -15 -8 6 -16 8 -19 5 -3 -2 -8 2 -11 11
-8 20 7 19 27 -1z m498 7 c-10 -6 -10 -10 3 -21 10 -8 15 -9 15 -1 0 6 11 11
25 11 14 0 25 -4 25 -9 0 -5 -10 -7 -22 -3 -13 3 -19 1 -15 -6 4 -6 0 -9 -10
-8 -20 3 -53 -23 -54 -44 0 -10 -3 -9 -9 5 -7 17 -9 17 -9 3 -1 -20 -16 -24
-27 -6 -4 7 -3 8 4 4 11 -6 16 6 13 27 0 4 4 7 9 7 6 0 10 -5 10 -12 0 -6 9
-3 20 7 18 16 18 20 5 35 -13 14 -12 16 8 17 14 2 17 -1 9 -6z m248 -26 c0 -9
8 -11 22 -7 19 5 20 4 7 -10 -17 -20 -25 -15 -46 25 -15 30 -15 31 0 18 10 -7
17 -19 17 -26z m-990 21 c0 -2 -9 -6 -20 -9 -11 -3 -18 -1 -14 4 5 9 34 13 34
5z m124 -12 c3 -8 2 -12 -4 -9 -6 3 -10 10 -10 16 0 14 7 11 14 -7z m258 -2
c-10 -3 -10 -7 -2 -17 8 -10 8 -15 -1 -21 -7 -4 -9 -3 -5 4 3 6 2 13 -3 17 -6
3 -8 12 -5 20 4 8 11 12 17 8 8 -5 7 -8 -1 -11z m101 -1 c-5 -21 -61 -66 -70
-57 -4 3 -1 6 5 6 7 0 12 5 12 11 0 6 -7 8 -16 5 -9 -3 -12 -2 -9 5 4 5 14 7
23 5 20 -7 36 3 45 27 9 23 16 22 10 -2z m351 -8 c-7 -25 -30 -37 -40 -21 -4
7 -3 8 4 4 7 -4 17 3 24 18 13 30 20 29 12 -1z m-674 -8 c0 -8 12 -22 26 -31
16 -11 24 -24 21 -35 -4 -13 2 -19 21 -21 23 -3 43 -38 21 -38 -5 0 -9 -5 -9
-11 0 -5 5 -7 11 -4 6 4 13 -2 16 -14 6 -22 19 -28 25 -11 2 6 8 6 18 0 13 -8
12 -10 -3 -10 -10 0 -16 -4 -13 -9 3 -5 -5 -8 -18 -8 -19 0 -22 4 -19 26 2 14
0 21 -3 14 -4 -9 -13 -5 -28 12 -13 14 -28 25 -35 25 -12 0 -15 23 -4 34 14
13 12 38 -3 32 -8 -3 -14 0 -14 7 0 7 -5 18 -12 25 -14 14 -20 45 -7 36 5 -3
9 -12 9 -19z m790 -1 c0 -8 -8 -14 -17 -14 -14 0 -15 2 -4 9 8 5 10 14 6 21
-5 9 -4 11 3 6 7 -4 12 -14 12 -22z m77 20 c-3 -3 -12 -4 -19 -1 -8 3 -5 6 6
6 11 1 17 -2 13 -5z m-935 -19 c0 -5 -5 -10 -11 -11 -8 -2 -7 -1 0 3 8 4 7 8
-2 15 -11 8 -11 9 -1 6 8 -2 14 -8 14 -13z m134 -4 c-4 -5 -1 -11 6 -13 7 -3
8 -9 3 -18 -7 -11 -10 -10 -15 6 -7 18 -4 34 6 34 3 0 3 -4 0 -9z m54 -11 c-6
-11 -16 -20 -23 -19 -9 0 -9 2 1 6 6 2 12 11 12 19 0 8 5 14 10 14 7 0 7 -6 0
-20z m-225 -19 c-6 -5 -25 10 -25 20 0 5 6 4 14 -3 8 -7 12 -15 11 -17z m920
19 c3 -5 1 -10 -4 -10 -6 0 -11 5 -11 10 0 6 2 10 4 10 3 0 8 -4 11 -10z m77
-33 c-6 -8 -3 -18 9 -29 9 -9 19 -16 21 -15 2 1 -6 -6 -17 -15 -22 -19 -26
-37 -12 -56 6 -7 7 -15 3 -19 -12 -12 -19 7 -20 59 -1 39 -6 57 -21 71 -19 16
-19 17 -1 10 13 -4 17 -3 12 5 -5 8 -2 10 8 6 11 -4 16 0 17 12 1 18 2 18 6 1
3 -10 1 -23 -5 -30z m-417 23 c3 -5 -1 -10 -10 -10 -9 0 -13 5 -10 10 3 6 8
10 10 10 2 0 7 -4 10 -10z m149 -23 c-8 -5 -12 -12 -9 -18 10 -15 -2 -10 -16
8 -10 11 -10 14 -1 9 15 -9 16 6 0 22 -9 9 -5 9 14 0 21 -10 24 -15 12 -21z
m116 22 c0 -5 -5 -7 -12 -3 -8 5 -9 1 -4 -12 5 -14 4 -16 -5 -7 -6 6 -8 16 -5
22 9 14 26 14 26 0z m-549 -13 c-7 -9 -8 -17 -2 -20 5 -3 12 0 14 6 4 9 6 10
6 1 1 -19 -16 -24 -29 -8 -9 11 -16 12 -25 5 -9 -8 -14 -7 -18 3 -4 10 2 13
19 11 13 -1 26 2 30 7 3 5 8 9 11 9 3 0 0 -6 -6 -14z m569 -6 c0 -5 -5 -10
-11 -10 -5 0 -7 5 -4 10 3 6 8 10 11 10 2 0 4 -4 4 -10z m70 -5 c0 -8 -2 -15
-4 -15 -2 0 -6 7 -10 15 -3 8 -1 15 4 15 6 0 10 -7 10 -15z m-732 -7 c-2 -6
-12 -12 -21 -14 -9 -1 -15 2 -11 7 3 5 10 7 15 4 5 -4 9 -1 9 4 0 6 3 11 6 11
3 0 4 -5 2 -12z m-286 -5 c-6 -2 -9 -10 -6 -15 4 -7 2 -8 -5 -4 -13 9 -5 26
12 25 9 0 8 -2 -1 -6z m743 -13 c-3 -5 0 -10 7 -10 10 0 9 -3 -2 -9 -8 -6 -17
-8 -22 -5 -9 6 1 34 14 34 5 0 6 -4 3 -10z m152 -4 c0 -8 -7 -12 -16 -9 -14 4
-14 3 -1 -9 9 -7 14 -21 12 -32 -2 -10 0 -16 6 -12 6 4 9 -4 7 -19 -2 -26 -15
-48 -15 -27 0 7 -6 12 -14 12 -8 0 -18 5 -22 12 -4 7 -3 8 4 4 7 -4 14 4 18
21 5 17 3 28 -4 31 -18 6 -14 30 6 35 9 3 17 5 18 6 0 0 1 -5 1 -13z m40 -41
c2 -19 -1 -35 -6 -35 -6 0 -8 7 -5 15 4 8 1 22 -6 30 -10 12 -10 15 1 16 10 0
11 2 2 6 -7 2 -13 10 -13 16 0 27 24 -15 27 -48z m-897 26 c0 -4 -6 -8 -13 -8
-8 0 -14 6 -14 13 0 7 6 10 14 7 7 -3 13 -8 13 -12z m330 13 c0 -8 -19 -13
-24 -6 -3 5 1 9 9 9 8 0 15 -2 15 -3z m5 -34 c-4 -7 -16 -10 -26 -7 -10 3 -20
0 -23 -7 -2 -6 -5 -3 -5 8 -1 11 4 16 12 13 8 -3 20 -1 28 3 16 11 24 5 14
-10z m605 2 c0 -10 -7 -19 -15 -19 -8 0 -15 7 -15 14 0 8 5 11 10 8 6 -3 10
-1 10 4 0 6 2 11 5 11 3 0 5 -8 5 -18z m170 11 c0 -5 -4 -14 -9 -21 -7 -11 -9
-11 -14 1 -3 8 -3 18 0 21 9 8 23 7 23 -1z m-336 -32 c-2 -3 -12 3 -22 13 -16
17 -16 18 5 5 12 -7 20 -15 17 -18z m-658 4 c-16 -9 -31 -13 -34 -10 -3 3 0 5
7 5 7 0 9 5 6 10 -4 6 6 10 22 10 l28 0 -29 -15z m864 5 c5 8 10 11 10 5 0 -5
-11 -20 -23 -32 l-23 -22 4 31 c3 21 7 26 13 17 7 -12 11 -11 19 1z m-1010
-10 c0 -5 -2 -10 -4 -10 -3 0 -8 5 -11 10 -3 6 -1 10 4 10 6 0 11 -4 11 -10z
m40 -11 c0 -5 -8 -9 -17 -8 -11 0 -13 3 -5 6 6 2 9 10 6 15 -4 7 -2 8 4 4 7
-4 12 -11 12 -17z m567 -16 c0 -9 -4 -10 -14 -2 -10 9 -13 6 -13 -16 0 -21 4
-26 18 -23 13 4 18 -1 20 -18 1 -14 -3 -23 -10 -21 -7 1 -12 -4 -13 -12 0 -8
-7 -16 -15 -18 -12 -4 -12 -3 -1 5 9 7 10 12 2 16 -6 4 -10 17 -10 29 0 12 -2
38 -4 58 -4 34 -3 35 18 25 12 -5 22 -16 22 -23z m-410 5 c-3 -8 -6 -5 -6 6
-1 11 2 17 5 13 3 -3 4 -12 1 -19z m313 12 c0 -5 -5 -10 -11 -10 -5 0 -7 5 -4
10 3 6 8 10 11 10 2 0 4 -4 4 -10z m-260 -21 c0 -6 -4 -7 -10 -4 -5 3 -10 11
-10 16 0 6 5 7 10 4 6 -3 10 -11 10 -16z m294 13 c3 -5 -1 -9 -9 -9 -8 0 -12
4 -9 9 3 4 7 8 9 8 2 0 6 -4 9 -8z m216 -7 c0 -8 -2 -15 -4 -15 -2 0 -6 7 -10
15 -3 8 -1 15 4 15 6 0 10 -7 10 -15z m-623 -1 c-3 -3 -12 -4 -19 -1 -8 3 -5
6 6 6 11 1 17 -2 13 -5z m-140 -15 c-9 -6 -14 -15 -11 -21 4 -7 2 -8 -5 -4
-14 9 3 36 23 36 6 0 3 -5 -7 -11z m512 -33 c-11 -12 -18 -5 -24 24 -4 22 -4
22 14 4 11 -11 15 -23 10 -28z m304 11 c-3 -5 -10 -4 -15 1 -6 6 -16 9 -22 8
-6 -2 -8 -1 -3 1 4 3 5 8 2 13 -3 4 6 3 19 -3 13 -7 22 -16 19 -20z m124 18
c0 -8 -4 -12 -9 -9 -4 3 -8 9 -8 15 0 5 4 9 8 9 5 0 9 -7 9 -15z m30 -20 c-6
-6 -20 -12 -31 -12 -19 -2 -19 -1 -3 8 9 6 17 17 17 25 0 12 3 12 13 2 10 -8
11 -16 4 -23z m-807 15 c0 -5 -7 -7 -15 -4 -8 4 -15 8 -15 10 0 2 7 4 15 4 8
0 15 -4 15 -10z m380 0 c0 -5 -2 -10 -4 -10 -3 0 -8 5 -11 10 -3 6 -1 10 4 10
6 0 11 -4 11 -10z m564 -1 c-3 -6 0 -15 7 -20 11 -6 9 -13 -8 -31 -16 -17 -19
-28 -13 -38 13 -21 12 -30 -3 -30 -9 0 -13 10 -12 28 2 39 -4 52 -23 45 -13
-4 -14 -3 -3 5 7 5 18 16 23 23 8 11 9 10 5 -3 -3 -9 1 -19 10 -22 12 -5 14
-1 9 17 -3 13 -3 27 1 31 10 10 15 7 7 -5z m-1084 -9 c0 -5 -2 -10 -4 -10 -3
0 -8 5 -11 10 -3 6 -1 10 4 10 6 0 11 -4 11 -10z m37 -12 c0 -13 -1 -17 -4
-10 -3 6 -10 9 -16 5 -7 -4 -6 1 2 10 17 21 17 21 18 -5z m186 9 c3 -8 -1 -14
-8 -14 -7 0 -11 6 -8 14 3 7 6 13 8 13 2 0 5 -6 8 -13z m-153 -7 c0 -5 -5 -10
-11 -10 -5 0 -7 5 -4 10 3 6 8 10 11 10 2 0 4 -4 4 -10z m80 -10 c0 -5 -5 -10
-11 -10 -8 0 -8 -5 1 -15 10 -12 10 -15 -3 -15 -9 0 -14 7 -12 18 2 9 4 20 4
25 1 11 21 8 21 -3z m384 1 c3 -5 -1 -11 -9 -14 -9 -4 -12 -1 -8 9 6 16 10 17
17 5z m330 -6 c-4 -8 -8 -15 -10 -15 -2 0 -4 7 -4 15 0 8 4 15 10 15 5 0 7 -7
4 -15z m113 -7 c-3 -8 -6 -5 -6 6 -1 11 2 17 5 13 3 -3 4 -12 1 -19z m-732 2
c-3 -5 -12 -10 -18 -10 -7 0 -6 4 3 10 19 12 23 12 15 0z m55 -11 c5 9 10 8
20 -4 11 -13 10 -15 -4 -9 -9 3 -16 2 -16 -4 0 -6 -10 -8 -22 -4 -12 3 -17 7
-11 9 7 3 10 12 7 21 -4 13 -3 13 6 -2 9 -13 15 -15 20 -7z m474 5 c3 -8 2
-12 -4 -9 -6 3 -10 10 -10 16 0 14 7 11 14 -7z m-271 -51 c-3 -7 -10 -13 -15
-13 -7 0 -6 5 1 14 9 10 8 15 -4 20 -8 3 -15 13 -15 22 0 13 4 11 19 -7 10
-13 16 -29 14 -36z m378 30 c-12 -20 -14 -14 -5 12 4 9 9 14 11 11 3 -2 0 -13
-6 -23z m39 12 c0 -8 -2 -15 -4 -15 -2 0 -6 7 -10 15 -3 8 -1 15 4 15 6 0 10
-7 10 -15z m-877 -16 c5 -3 1 -9 -8 -12 -11 -5 -14 -3 -9 5 5 8 2 9 -11 4 -15
-5 -16 -4 -5 9 7 9 16 12 19 8 3 -4 10 -11 14 -14z m697 6 c5 3 12 0 15 -6 5
-7 1 -10 -10 -7 -10 1 -20 9 -21 16 -1 7 0 8 3 2 2 -5 9 -8 13 -5z m221 -15
c-3 -3 -9 -9 -13 -14 -5 -5 -8 3 -8 18 0 22 2 25 14 14 8 -7 11 -15 7 -18z
m-145 11 c-6 -9 -46 -22 -46 -15 0 3 10 9 23 14 29 11 29 11 23 1z m-676 -18
c8 -1 18 3 23 10 6 8 7 8 4 -3 -5 -20 -54 -23 -61 -4 -4 10 -2 13 7 7 6 -4 19
-8 27 -10z m98 -12 c17 -33 15 -37 -7 -10 -15 18 -22 21 -33 12 -11 -9 -14 -8
-14 6 0 26 39 20 54 -8z m-248 15 c0 -2 -7 -6 -15 -10 -8 -3 -15 -1 -15 4 0 6
7 10 15 10 8 0 15 -2 15 -4z m104 -5 c3 -5 -2 -8 -12 -7 -9 0 -16 -5 -14 -12
1 -8 -2 -10 -8 -7 -6 4 -19 -2 -29 -14 -10 -11 -21 -18 -24 -14 -6 6 61 62 75
63 4 0 9 -4 12 -9z m186 5 c0 -3 -4 -8 -10 -11 -5 -3 -10 -1 -10 4 0 6 5 11
10 11 6 0 10 -2 10 -4z m-273 -21 c0 -8 -4 -12 -9 -9 -5 3 -6 10 -3 15 9 13
12 11 12 -6z m553 1 c0 5 5 2 10 -6 8 -13 10 -12 10 3 0 11 6 17 16 15 14 -3
22 -19 8 -17 -4 0 -10 -5 -14 -11 -6 -9 -13 -9 -31 1 -13 7 -28 12 -32 11 -5
-1 -6 2 -2 8 5 8 11 7 21 -1 8 -6 14 -8 14 -3z m125 4 c-3 -5 1 -10 9 -10 9 0
16 5 16 11 0 5 5 7 10 4 17 -11 -15 -34 -39 -28 -17 4 -19 8 -10 19 13 16 23
19 14 4z m425 0 c0 -5 -4 -10 -9 -10 -6 0 -13 5 -16 10 -3 6 1 10 9 10 9 0 16
-4 16 -10z m-777 -34 c7 4 8 3 4 -1 -11 -13 -37 -15 -37 -3 0 5 -9 6 -21 3
-18 -6 -19 -5 -10 14 l11 21 21 -21 c11 -11 25 -17 32 -13z m-8 24 c3 -5 1
-10 -4 -10 -6 0 -11 5 -11 10 0 6 2 10 4 10 3 0 8 -4 11 -10z m569 -14 c-3 -9
-10 -16 -15 -16 -5 0 -4 9 3 20 14 22 21 20 12 -4z m96 7 c0 -3 -7 -3 -15 1
-20 7 -19 -4 3 -21 9 -8 12 -12 5 -8 -13 6 -38 -31 -25 -38 4 -2 1 -2 -5 -1
-7 2 -13 -4 -13 -14 0 -14 -2 -15 -9 -3 -7 10 -5 19 6 26 9 7 14 16 11 21 -10
17 10 54 27 48 8 -3 15 -8 15 -11z m-1022 0 c-11 -3 -15 -11 -12 -21 5 -14 4
-14 -4 -2 -13 18 -6 30 16 29 16 -1 16 -2 0 -6z m834 -1 c3 8 6 6 11 -5 10
-26 -8 -29 -29 -4 -14 15 -14 18 -2 9 13 -10 17 -10 20 0z m133 -12 c-2 -11
-11 -30 -19 -42 -12 -17 -13 -25 -3 -37 10 -14 10 -14 -4 -4 -9 7 -19 9 -24 5
-4 -4 4 10 18 32 14 21 23 45 20 52 -3 8 0 14 5 14 6 0 9 -9 7 -20z m99 -4
c-2 -6 1 -18 6 -26 9 -13 11 -13 19 0 5 8 7 18 5 22 -3 4 -1 8 5 8 5 0 9 -15
9 -32 -1 -18 -3 -28 -5 -21 -2 7 -11 9 -19 6 -7 -3 -12 -9 -9 -13 3 -5 1 -11
-4 -14 -5 -4 -8 2 -6 11 1 10 -4 30 -11 44 -11 21 -11 26 1 26 7 0 11 -5 9
-11z m-979 -5 c-3 -5 3 -17 12 -27 16 -16 16 -17 1 -11 -9 3 -19 1 -21 -6 -2
-7 -3 -4 -2 6 2 9 -2 17 -7 17 -6 0 -5 6 2 15 14 16 25 21 15 6z m114 -18 c2
-2 -3 -3 -11 -3 -9 0 -19 7 -22 16 -6 15 -4 15 11 3 10 -7 20 -15 22 -16z
m537 -6 c5 -7 1 -6 -10 2 -14 12 -19 12 -25 2 -6 -10 -9 -9 -14 2 -3 8 -3 18
0 21 7 7 40 -10 49 -27z m139 23 c3 -5 1 -10 -4 -10 -6 0 -11 5 -11 10 0 6 2
10 4 10 3 0 8 -4 11 -10z m-745 -4 c0 -2 -7 -6 -15 -10 -8 -3 -15 -1 -15 4 0
6 7 10 15 10 8 0 15 -2 15 -4z m528 -3 c-10 -2 -15 -10 -11 -19 6 -16 -13 -19
-23 -3 -8 13 14 29 36 28 11 -1 11 -2 -2 -6z m-613 -23 c10 -11 16 -20 13 -20
-3 0 -13 9 -23 20 -10 11 -16 20 -13 20 3 0 13 -9 23 -20z m205 10 c0 -5 -2
-10 -4 -10 -3 0 -8 5 -11 10 -3 6 -1 10 4 10 6 0 11 -4 11 -10z m60 6 c0 -2
-8 -10 -17 -17 -16 -13 -17 -12 -4 4 13 16 21 21 21 13z m513 -16 c3 -11 1
-18 -4 -14 -5 3 -9 12 -9 20 0 20 7 17 13 -6z m-802 -6 c11 -14 10 -15 -7 -12
-12 2 -18 -2 -16 -10 1 -8 -2 -11 -8 -7 -6 4 -5 13 3 25 14 24 12 24 28 4z
m314 6 c-3 -5 -11 -10 -16 -10 -6 0 -7 5 -4 10 3 6 11 10 16 10 6 0 7 -4 4
-10z m572 -12 c-3 -8 -6 -5 -6 6 -1 11 2 17 5 13 3 -3 4 -12 1 -19z m-722 -9
c-5 -14 -3 -19 7 -17 7 2 15 -1 16 -7 4 -16 -46 -15 -52 1 -3 8 -2 12 3 9 5
-3 12 4 16 15 3 11 9 20 11 20 3 0 2 -9 -1 -21z m180 11 c3 -5 1 -10 -4 -10
-6 0 -11 5 -11 10 0 6 2 10 4 10 3 0 8 -4 11 -10z m39 2 c3 -5 -1 -9 -9 -9 -8
0 -12 4 -9 9 3 4 7 8 9 8 2 0 6 -4 9 -8z m321 -2 c3 -5 1 -10 -4 -10 -6 0 -11
5 -11 10 0 6 2 10 4 10 3 0 8 -4 11 -10z m151 -46 c1 -8 -2 -14 -8 -14 -6 0
-8 7 -4 15 3 9 0 15 -9 15 -8 0 -15 7 -15 16 0 13 2 13 17 -2 10 -9 18 -23 19
-30z m-743 30 c3 -4 -1 -13 -9 -21 -13 -14 -13 -17 3 -29 10 -7 14 -14 8 -14
-5 0 -4 -4 3 -9 11 -6 10 -10 -3 -15 -14 -5 -16 -2 -12 13 5 21 -22 39 -32 22
-4 -6 -12 -6 -21 -1 -13 8 -12 10 2 10 11 0 15 5 12 14 -3 8 0 17 7 22 9 5 10
2 6 -9 -3 -10 -2 -17 3 -17 6 0 10 9 10 20 0 20 11 26 23 14z m111 -5 c-2 -4
0 -10 6 -14 5 -3 10 -14 9 -23 0 -14 -2 -14 -6 -2 -3 8 -12 22 -19 31 -12 13
-12 16 1 16 8 0 12 -4 9 -8z m782 2 c-6 -9 -46 -22 -46 -15 0 3 10 9 23 14 29
11 29 11 23 1z m117 -6 c-3 -9 -8 -14 -10 -11 -3 3 -2 9 2 15 9 16 15 13 8 -4z
m-738 -16 c-4 -5 -1 -9 4 -9 6 0 11 -5 11 -12 0 -9 -3 -9 -12 0 -14 14 -20 44
-7 36 5 -3 7 -10 4 -15z m326 4 c13 -16 12 -17 -3 -4 -10 7 -18 15 -18 17 0 8
8 3 21 -13z m386 -14 c2 -18 1 -20 -6 -9 -5 8 -8 17 -5 21 2 4 -1 10 -6 12 -6
3 -5 4 1 3 7 -1 14 -13 16 -27z m-1073 12 c4 -5 -3 -7 -14 -4 -23 6 -26 13 -6
13 8 0 17 -4 20 -9z m293 -10 c3 -13 11 -17 26 -15 21 4 21 4 2 -5 -24 -10
-35 -5 -35 15 0 8 -4 12 -10 9 -5 -3 -10 -1 -10 4 0 19 22 12 27 -8z m496 -8
c-4 -11 -8 -13 -11 -5 -2 8 -9 9 -23 2 -15 -8 -17 -7 -13 4 6 15 33 26 46 19
4 -2 4 -11 1 -20z m-73 -19 c-18 -21 -24 -10 -8 15 7 12 14 17 16 11 2 -6 -2
-17 -8 -26z m-730 16 c0 -5 -5 -10 -11 -10 -5 0 -7 5 -4 10 3 6 8 10 11 10 2
0 4 -4 4 -10z m449 -11 c-10 -6 -10 -10 0 -23 11 -13 11 -16 -3 -16 -10 0 -16
8 -16 23 0 16 -3 18 -9 8 -6 -9 -11 -10 -15 -2 -12 18 2 29 30 23 18 -3 22 -7
13 -13z m495 12 c15 -6 16 -9 5 -13 -8 -3 -20 1 -27 8 -14 15 -7 17 22 5z m39
-6 c-3 -9 -8 -14 -10 -11 -3 3 -2 9 2 15 9 16 15 13 8 -4z m77 6 c0 -6 -4 -12
-8 -15 -5 -3 -9 1 -9 9 0 8 4 15 9 15 4 0 8 -4 8 -9z m-873 -7 c-3 -3 -12 -4
-19 -1 -8 3 -5 6 6 6 11 1 17 -2 13 -5z m303 -8 c0 -2 -7 -7 -16 -10 -8 -3
-12 -2 -9 4 6 10 25 14 25 6z m352 -14 c-3 -9 -1 -13 5 -9 5 3 10 1 11 -6 3
-44 12 -99 18 -109 4 -6 3 -8 -4 -4 -6 3 -13 2 -17 -4 -3 -5 -2 -10 3 -10 5 0
14 -12 21 -27 9 -23 9 -25 -1 -12 -7 9 -19 15 -26 13 -7 -1 -8 0 -2 3 8 3 7 9
-1 19 -6 8 -8 14 -5 14 4 0 2 10 -4 23 -11 22 -11 22 5 2 16 -20 17 -20 13 5
-2 14 -12 33 -23 42 -17 15 -18 19 -5 28 13 9 13 12 -2 24 -19 14 -17 23 6 23
8 0 12 -6 8 -15z m172 3 c-4 -8 -11 -12 -16 -9 -6 4 -5 10 3 15 19 12 19 11
13 -6z m86 -5 c0 -5 -4 -10 -10 -10 -5 0 -10 5 -10 10 0 6 5 10 10 10 6 0 10
-4 10 -10z m-775 -17 c-2 -10 -4 -19 -4 -21 -1 -1 -7 3 -15 10 -12 11 -11 14
3 20 9 4 17 7 18 7 1 1 0 -7 -2 -16z m191 -1 c-10 -2 -22 0 -28 6 -6 6 0 7 19
4 21 -5 23 -7 9 -10z m-490 -4 c4 -7 3 -8 -4 -4 -7 4 -12 0 -12 -10 0 -10 -3
-15 -6 -11 -7 6 2 37 10 37 3 0 8 -5 12 -12z m54 2 c0 -5 -7 -7 -15 -4 -8 4
-15 8 -15 10 0 2 7 4 15 4 8 0 15 -4 15 -10z m107 4 c-3 -3 -12 -4 -19 -1 -8
3 -5 6 6 6 11 1 17 -2 13 -5z m211 -17 c3 -13 -1 -15 -14 -10 -13 5 -14 8 -5
11 11 4 11 6 0 14 -11 8 -11 9 1 5 8 -2 16 -11 18 -20z m392 0 c7 -10 9 -17 4
-16 -27 5 -45 -2 -42 -17 2 -10 -3 -18 -10 -20 -7 -1 -8 0 -3 2 6 3 7 12 4 20
-4 10 2 17 15 21 14 3 19 10 15 21 -7 18 -5 17 17 -11z m30 17 c0 -8 -19 -13
-24 -6 -3 5 1 9 9 9 8 0 15 -2 15 -3z m260 -10 c0 -2 -7 -4 -15 -4 -8 0 -15 4
-15 10 0 5 7 7 15 4 8 -4 15 -8 15 -10z m-514 -11 c-2 -9 -9 -19 -17 -21 -11
-3 -11 -1 1 7 8 6 11 11 7 11 -5 0 -5 5 -2 10 9 15 14 12 11 -7z m394 12 c0
-2 -6 -8 -13 -14 -10 -8 -14 -7 -14 2 0 8 6 14 14 14 7 0 13 -1 13 -2z m40 -5
c0 -4 -9 -15 -20 -25 -11 -10 -20 -13 -20 -7 0 7 5 12 11 12 6 0 9 6 6 13 -3
8 1 14 9 14 8 0 14 -3 14 -7z m23 -4 c3 -8 0 -19 -7 -25 -10 -9 -12 -6 -8 14
5 29 8 31 15 11z m-973 -6 c0 -5 -5 -10 -11 -10 -5 0 -7 5 -4 10 3 6 8 10 11
10 2 0 4 -4 4 -10z m414 1 c-9 -9 -45 -11 -39 -2 3 6 14 9 25 8 10 -1 17 -3
14 -6z m69 -4 c-3 -5 -11 -6 -19 -3 -10 4 -14 -3 -15 -22 -1 -15 -3 -20 -6
-11 -3 11 -11 15 -26 12 -18 -4 -16 -1 7 14 30 19 69 26 59 10z m-366 -13 c3
-8 12 -13 21 -9 12 5 13 3 2 -10 -12 -15 -14 -15 -23 2 -6 10 -15 21 -21 25
-7 5 -7 8 2 8 7 0 15 -7 19 -16z m-54 -14 c-3 -11 -7 -20 -9 -20 -2 0 -4 9 -4
20 0 11 4 20 9 20 5 0 7 -9 4 -20z m214 5 c0 -8 -6 -16 -14 -19 -11 -4 -11 -1
-3 14 13 24 17 25 17 5z m480 -10 c4 -4 2 -5 -4 -1 -11 6 -18 -10 -15 -35 1
-4 -8 -5 -19 -2 -19 5 -20 3 -11 -14 8 -15 8 -20 -3 -20 -7 0 -11 7 -7 15 4
11 2 13 -9 7 -12 -8 -12 -6 0 8 7 9 19 17 27 17 7 0 11 8 9 19 -4 19 17 23 32
6z m-720 -16 c-4 -15 -2 -19 9 -15 12 4 12 2 4 -14 -6 -11 -13 -20 -16 -20 -3
0 -2 4 1 10 3 5 -6 12 -20 16 -13 3 -22 10 -20 15 3 4 12 6 20 2 11 -4 13 -1
9 11 -4 9 -1 16 6 16 8 0 10 -8 7 -21z m154 -13 c-13 -16 -51 -18 -51 -3 0 5
6 7 14 4 9 -4 16 3 20 16 4 17 8 19 17 10 9 -9 9 -15 0 -27z m313 26 c3 -5 -1
-9 -9 -9 -8 0 -12 4 -9 9 3 4 7 8 9 8 2 0 6 -4 9 -8z m28 -17 c-5 -27 -16 -32
-28 -13 -4 7 -3 8 4 4 8 -5 12 0 12 13 0 12 4 21 9 21 4 0 6 -11 3 -25z m498
0 c0 -8 -4 -16 -8 -19 -4 -2 -8 6 -8 19 0 13 4 21 8 19 4 -3 8 -11 8 -19z
m-84 -4 c12 10 15 10 12 -2 -2 -8 2 -13 8 -12 6 1 11 -5 11 -13 0 -12 -2 -12
-16 0 -11 10 -21 12 -33 5 -15 -8 -16 -7 -11 8 6 16 5 17 -12 3 -17 -14 -17
-14 -4 7 11 19 15 20 22 7 7 -12 12 -13 23 -3z m-523 -21 c-3 -12 -8 -19 -11
-16 -5 6 5 36 12 36 2 0 2 -9 -1 -20z m55 0 c7 -12 17 -18 22 -15 5 3 11 2 14
-3 12 -19 -25 -7 -46 15 -12 12 -17 23 -12 23 5 0 15 -9 22 -20z m406 -6 c3
-8 2 -12 -4 -9 -6 3 -10 10 -10 16 0 14 7 11 14 -7z m-803 -16 c-12 -4 -20
-12 -17 -17 3 -5 0 -11 -8 -14 -11 -4 -12 0 -3 22 8 21 15 27 30 23 20 -5 20
-6 -2 -14z m126 8 c0 -8 -6 -12 -15 -9 -11 5 -11 7 0 14 7 5 13 9 14 9 0 0 1
-6 1 -14z m253 -1 c10 -12 10 -15 -2 -15 -8 0 -15 7 -15 15 0 8 1 15 2 15 2 0
8 -7 15 -15z m84 -20 c-3 -7 -13 -16 -22 -20 -14 -5 -14 -4 1 13 9 10 14 22
10 27 -5 4 -3 5 4 1 7 -4 10 -13 7 -21z m218 7 c-10 -3 -10 -7 0 -20 7 -10 9
-14 4 -10 -4 4 -19 3 -33 -3 -16 -6 -22 -6 -18 1 3 6 13 10 21 10 11 0 12 4 5
19 -9 17 -8 18 11 13 13 -3 17 -7 10 -10z m-825 -12 c10 -13 8 -16 -8 -16 -10
0 -19 1 -19 2 0 6 13 34 14 32 1 -2 7 -10 13 -18z m344 -5 c11 6 12 5 2 -5
-10 -11 -15 -11 -28 0 -8 7 -15 17 -15 23 0 6 6 3 13 -8 9 -11 19 -15 28 -10z
m764 7 c-3 -3 -11 0 -18 7 -9 10 -8 11 6 5 10 -3 15 -9 12 -12z m-888 -7 c0
-11 -4 -12 -14 -4 -7 6 -13 13 -13 15 0 2 6 4 13 4 8 0 14 -7 14 -15z m773 10
c0 -2 -6 -8 -13 -14 -10 -8 -14 -7 -14 2 0 8 6 14 14 14 7 0 13 -1 13 -2z m60
-5 c0 -5 -7 -6 -17 -3 -10 4 -14 2 -10 -4 4 -6 0 -14 -9 -17 -21 -8 -24 -8
-24 5 0 5 4 8 9 5 5 -3 11 1 15 9 6 16 36 21 36 5z m-960 -4 c0 -2 -7 -7 -16
-10 -8 -3 -12 -2 -9 4 6 10 25 14 25 6z m152 -28 c-8 -8 -9 -4 -5 13 4 13 8
18 11 10 2 -7 -1 -18 -6 -23z m38 7 c0 -8 -4 -15 -10 -15 -5 0 -7 7 -4 15 4 8
8 15 10 15 2 0 4 -7 4 -15z m-140 -14 c0 -11 -3 -22 -7 -24 -5 -3 -8 6 -8 19
0 13 3 24 8 24 4 0 7 -9 7 -19z m617 13 c-3 -3 -12 -4 -19 -1 -8 3 -5 6 6 6
11 1 17 -2 13 -5z m293 2 c0 -2 -8 -10 -17 -17 -16 -13 -17 -12 -4 4 13 16 21
21 21 13z m-1032 -31 c-3 -3 -9 2 -12 12 -6 14 -5 15 5 6 7 -7 10 -15 7 -18z
m92 15 c0 -5 -2 -10 -4 -10 -3 0 -8 5 -11 10 -3 6 -1 10 4 10 6 0 11 -4 11
-10z m97 4 c-3 -3 -12 -4 -19 -1 -8 3 -5 6 6 6 11 1 17 -2 13 -5z m630 -9 c4
-4 2 -5 -4 -1 -8 4 -13 1 -13 -8 0 -9 5 -16 10 -16 6 0 10 -4 10 -8 0 -4 -13
-8 -30 -7 -16 0 -30 3 -30 7 0 5 7 8 16 8 11 0 15 6 11 19 -5 19 15 23 30 6z
m48 5 c3 -5 -1 -10 -10 -10 -9 0 -13 5 -10 10 3 6 8 10 10 10 2 0 7 -4 10 -10z
m-882 -23 c3 -8 -1 -14 -8 -14 -7 0 -11 6 -8 14 6 16 10 16 16 0z m327 3 c0
-5 -5 -10 -11 -10 -5 0 -7 5 -4 10 3 6 8 10 11 10 2 0 4 -4 4 -10z m727 -12
c-3 -8 -6 -5 -6 6 -1 11 2 17 5 13 3 -3 4 -12 1 -19z m-794 -3 c-3 -9 -8 -14
-10 -11 -3 3 -2 9 2 15 9 16 15 13 8 -4z m497 -4 c7 -14 7 -22 -2 -27 -7 -4
-8 -3 -4 4 4 7 3 12 -2 12 -5 0 -9 7 -9 15 0 20 4 19 17 -4z m140 1 c0 -8 6
-12 14 -9 10 4 13 1 9 -9 -4 -10 -9 -12 -18 -4 -6 5 -15 8 -18 5 -4 -3 -5 -2
-2 2 3 3 -2 11 -11 17 -13 10 -13 12 5 12 12 0 21 -7 21 -14z m125 8 c8 7 12
5 12 -4 0 -12 -16 -14 -37 -6 -3 1 -9 2 -13 1 -5 -1 -5 4 -2 10 5 7 10 8 18 0
7 -7 15 -7 22 -1z m-735 -14 c0 -8 -7 -16 -15 -20 -12 -4 -13 -2 -2 14 14 24
17 25 17 6z m-140 -19 c0 -7 -7 -22 -16 -33 -15 -18 -15 -18 -5 3 15 30 14 32
-11 27 -21 -4 -22 -4 -3 5 28 13 35 13 35 -2z m215 3 c3 -5 1 -10 -4 -10 -6 0
-11 5 -11 10 0 6 2 10 4 10 3 0 8 -4 11 -10z m328 -15 c-3 -9 -8 -14 -10 -11
-3 3 -2 9 2 15 9 16 15 13 8 -4z m126 12 c-2 -1 -11 -8 -21 -15 -12 -10 -18
-10 -24 -1 -4 7 -3 9 4 5 6 -3 13 -2 17 4 3 5 11 10 17 10 6 0 9 -1 7 -3z
m140 -10 c8 -10 7 -14 -2 -14 -8 0 -14 6 -14 14 0 7 1 13 2 13 2 0 8 -6 14
-13z m118 -12 c-7 -13 -14 -20 -16 -14 -2 6 -11 3 -22 -7 -15 -13 -22 -14 -33
-5 -11 10 -17 8 -26 -6 -11 -17 -11 -17 -6 0 3 10 6 23 6 28 0 6 4 8 9 5 5 -4
11 -3 14 1 2 5 2 3 1 -4 -5 -19 18 -28 30 -11 9 11 43 36 53 38 0 0 -4 -11
-10 -25z m-1094 9 c-7 -3 -9 -13 -6 -22 4 -14 3 -14 -5 -2 -12 16 -7 30 11 29
9 0 9 -2 0 -5z m44 -13 c-1 -12 -7 -17 -17 -14 -13 4 -13 3 0 -9 9 -7 14 -21
12 -32 -3 -13 0 -16 10 -11 7 5 9 4 5 0 -17 -19 -34 -13 -29 10 2 12 -1 26 -7
29 -16 10 -13 26 4 26 8 0 15 5 15 10 0 6 2 10 4 10 3 0 4 -9 3 -19z m373 9
c0 -5 -2 -10 -4 -10 -3 0 -8 5 -11 10 -3 6 -1 10 4 10 6 0 11 -4 11 -10z m437
3 c-4 -3 -1 -13 6 -22 11 -14 10 -14 -5 -2 -16 12 -16 31 -1 31 4 0 3 -3 0 -7z
m67 -8 c3 -8 4 -15 2 -15 -3 0 -11 -3 -20 -6 -9 -3 -16 -1 -16 6 0 6 5 8 12 4
8 -5 9 -2 5 9 -3 10 -2 17 2 17 5 0 11 -7 15 -15z m-804 -8 c12 4 12 3 1 -5
-14 -10 -48 -5 -57 9 -3 5 5 5 18 0 13 -4 30 -6 38 -4z m137 -2 c0 -8 -4 -15
-9 -15 -10 0 -11 14 -1 23 9 10 10 9 10 -8z m103 11 c0 -3 -4 -8 -10 -11 -5
-3 -10 -1 -10 4 0 6 5 11 10 11 6 0 10 -2 10 -4z m320 -5 c0 -5 -7 -12 -16
-15 -14 -5 -15 -4 -4 9 14 17 20 19 20 6z m145 -14 c4 5 5 2 1 -5 -8 -13 -39
-2 -52 19 -3 6 5 4 18 -5 14 -9 28 -13 33 -9z m-543 -19 c-8 -8 -9 -4 -5 13 4
13 8 18 11 10 2 -7 -1 -18 -6 -23z m103 22 c-3 -5 -12 -10 -18 -10 -7 0 -6 4
3 10 19 12 23 12 15 0z m-65 -13 c0 -7 -9 -18 -21 -25 -21 -13 -21 -13 -3 12
22 29 24 31 24 13z m824 5 c3 -5 -1 -9 -9 -9 -8 0 -12 4 -9 9 3 4 7 8 9 8 2 0
6 -4 9 -8z m-222 -22 c-21 -17 -15 -39 8 -25 6 3 10 -1 10 -10 0 -11 5 -15 15
-11 8 3 15 2 15 -3 0 -15 -13 -21 -26 -10 -8 7 -14 7 -19 -1 -3 -5 -1 -10 5
-10 7 0 5 -6 -4 -15 -19 -19 -32 -19 -16 0 10 12 10 15 -1 15 -8 0 -5 6 7 15
19 15 19 15 -1 8 -11 -3 -17 -3 -13 2 4 4 3 14 -3 21 -7 9 -4 17 13 28 31 22
38 20 10 -4z m-925 4 c-3 -3 -12 -4 -19 -1 -8 3 -5 6 6 6 11 1 17 -2 13 -5z
m153 -4 c0 -5 -2 -10 -4 -10 -3 0 -8 5 -11 10 -3 6 -1 10 4 10 6 0 11 -4 11
-10z m940 6 c0 -2 -7 -7 -16 -10 -8 -3 -12 -2 -9 4 6 10 25 14 25 6z m-724
-31 c1 -9 -4 -11 -14 -7 -10 4 -12 7 -4 10 7 2 9 9 5 15 -3 7 -2 8 2 4 5 -4
10 -14 11 -22z m208 14 c-2 -4 0 -10 5 -13 5 -3 14 -20 20 -37 10 -29 9 -30
-6 -18 -15 12 -16 12 -10 -5 6 -16 5 -17 -8 -6 -14 11 -13 14 2 27 13 11 14
13 3 10 -8 -2 -22 2 -30 11 -12 14 -11 15 11 9 l24 -6 -25 19 c-24 18 -24 19
-3 17 12 0 20 -4 17 -8z m90 4 c-5 -5 -12 -12 -16 -18 -4 -6 -8 -2 -8 8 0 9 7
17 17 17 9 0 12 -3 7 -7z m161 -3 c3 -6 -1 -7 -9 -4 -18 7 -21 14 -7 14 6 0
13 -4 16 -10z m-718 -13 c0 -7 -9 -14 -20 -14 -19 -2 -19 -2 -1 12 11 8 19 15
20 15 0 0 1 -6 1 -13z m139 1 c4 -7 3 -8 -4 -4 -7 4 -12 2 -12 -5 0 -7 -3 -10
-6 -6 -6 5 3 27 11 27 2 0 7 -5 11 -12z m609 3 c3 -5 2 -12 -3 -15 -5 -3 -9 1
-9 9 0 17 3 19 12 6z m-851 -31 c-6 -6 -10 -3 -10 10 0 13 4 16 10 10 7 -7 7
-13 0 -20z m294 4 c-7 -15 -14 -21 -16 -15 -2 6 -10 11 -18 11 -9 0 -12 5 -9
10 5 8 11 8 20 0 9 -8 14 -6 19 5 3 8 8 15 10 15 3 0 0 -12 -6 -26z m220 10
c-1 -5 -9 -9 -16 -10 -10 -2 -11 1 -1 12 12 14 24 13 17 -2z m172 -5 c0 -6 -4
-7 -10 -4 -5 3 -10 11 -10 16 0 6 5 7 10 4 6 -3 10 -11 10 -16z m110 2 c6 -11
6 -22 1 -25 -5 -3 -11 5 -13 19 -6 30 -2 32 12 6z m-470 -5 c0 -8 -7 -16 -15
-20 -12 -4 -13 -2 -2 14 14 24 17 25 17 6z m83 -12 c-4 -11 -9 -12 -19 -3 -18
15 -18 14 5 16 14 1 18 -3 14 -13z m321 -8 c8 3 17 1 21 -5 3 -7 0 -8 -9 -5
-9 3 -16 1 -16 -5 0 -6 -5 -11 -11 -11 -5 0 -8 4 -4 9 3 5 1 12 -5 16 -5 3
-10 12 -10 18 0 7 5 4 11 -5 5 -9 16 -15 23 -12z m-504 8 c0 -8 -19 -13 -24
-6 -3 5 1 9 9 9 8 0 15 -2 15 -3z m214 -8 c-4 -10 2 -16 18 -18 13 -2 19 -6
13 -9 -5 -4 -21 -3 -34 2 -19 8 -21 12 -11 24 16 19 21 19 14 1z m604 -14 c-1
-10 2 -24 7 -32 7 -13 6 -13 -7 -2 -14 11 -18 10 -27 -5 -9 -15 -10 -13 -5 11
5 20 3 27 -4 22 -6 -3 -13 -2 -16 3 -7 11 13 9 33 -3 11 -7 13 -4 9 12 -4 13
-2 20 3 16 6 -3 9 -13 7 -22z m-955 -7 c-7 -21 -12 -19 -10 4 0 11 5 18 9 15
4 -3 5 -11 1 -19z m74 19 c-3 -3 -12 -4 -19 -1 -8 3 -5 6 6 6 11 1 17 -2 13
-5z m521 -11 c16 -15 15 -20 -4 -27 -8 -3 -13 -2 -10 3 10 16 -22 35 -37 22
-10 -8 -14 -7 -14 5 0 18 45 16 65 -3z m192 7 c12 -8 12 -10 1 -10 -11 0 -11
-3 -1 -15 9 -10 9 -15 1 -15 -10 0 -15 14 -12 34 1 5 -7 6 -19 3 -11 -3 -18
-1 -14 4 7 12 25 11 44 -1z m235 -20 c-9 -16 -17 -30 -19 -30 -8 0 8 45 18 52
17 12 17 10 1 -22z m-1127 -5 c-3 -3 -9 2 -12 12 -6 14 -5 15 5 6 7 -7 10 -15
7 -18z m35 19 c-6 -3 -10 -17 -7 -32 3 -19 2 -23 -5 -13 -7 11 -8 29 -2 49 1
1 7 2 14 1 9 0 9 -2 0 -5z m148 -27 c-10 -9 -11 -8 -5 6 3 10 9 15 12 12 3 -3
0 -11 -7 -18z m143 8 c-4 -8 -10 -15 -15 -15 -4 0 -6 7 -3 15 4 8 10 15 15 15
4 0 6 -7 3 -15z m66 5 c0 -5 -2 -10 -4 -10 -3 0 -8 5 -11 10 -3 6 -1 10 4 10
6 0 11 -4 11 -10z m146 -2 c3 -4 -1 -5 -10 -4 -8 1 -18 5 -22 8 -3 4 1 5 10 4
8 -1 18 -5 22 -8z m134 -4 c0 -8 -4 -12 -10 -9 -5 3 -10 10 -10 16 0 5 5 9 10
9 6 0 10 -7 10 -16z m154 -15 c-3 -5 -11 -9 -17 -8 -8 0 -8 2 1 6 10 4 10 8 0
21 -12 15 -11 16 4 3 10 -7 15 -17 12 -22z m267 8 c-10 -9 -11 -8 -5 6 3 10 9
15 12 12 3 -3 0 -11 -7 -18z m-834 -13 c-9 -9 -28 6 -21 18 4 6 10 6 17 -1 6
-6 8 -13 4 -17z m28 16 c3 -5 1 -10 -4 -10 -6 0 -11 5 -11 10 0 6 2 10 4 10 3
0 8 -4 11 -10z m65 -15 c0 -15 -5 -24 -12 -23 -8 2 -12 -5 -10 -15 2 -9 -1
-25 -7 -34 -14 -27 -6 36 9 70 16 33 20 34 20 2z m650 6 c0 -5 -8 -15 -17 -22
-16 -12 -17 -12 -6 2 7 9 10 19 6 22 -3 4 -1 7 5 7 7 0 12 -4 12 -9z m-788
-26 c3 -13 2 -22 -2 -20 -11 7 -20 45 -10 45 4 0 10 -11 12 -25z m328 15 c0
-5 -5 -10 -11 -10 -5 0 -7 5 -4 10 3 6 8 10 11 10 2 0 4 -4 4 -10z m65 -9 c-1
-9 2 -22 8 -29 14 -18 -11 -35 -28 -18 -14 13 -16 46 -3 46 5 0 7 4 4 8 -3 5
1 9 8 9 8 0 13 -7 11 -16z m345 -1 c0 -4 -7 -11 -16 -14 -13 -5 -14 -4 -6 7 7
8 8 18 4 22 -4 5 -1 5 6 1 6 -4 12 -11 12 -16z m-809 -14 c-6 -7 -9 -15 -6
-18 3 -2 -2 -5 -10 -5 -13 0 -13 2 0 17 8 9 12 20 8 25 -5 4 -2 5 5 1 9 -6 10
-11 3 -20z m34 14 c3 -5 1 -10 -4 -10 -6 0 -11 5 -11 10 0 6 2 10 4 10 3 0 8
-4 11 -10z m299 2 c3 -5 -1 -9 -9 -9 -8 0 -15 4 -15 9 0 4 4 8 9 8 6 0 12 -4
15 -8z m-209 -32 c2 -26 -20 -46 -31 -29 -4 7 -3 9 4 5 6 -3 13 -2 17 4 3 5 2
10 -4 10 -5 0 -8 8 -6 18 2 9 4 19 4 21 2 11 15 -12 16 -29z m130 9 c-4 -5
-12 -9 -18 -8 -9 0 -8 2 1 6 6 2 9 10 6 15 -4 7 -2 8 5 4 6 -4 9 -12 6 -17z
m460 11 c3 -5 2 -10 -4 -10 -5 0 -13 5 -16 10 -3 6 -2 10 4 10 5 0 13 -4 16
-10z m-785 -11 c0 -5 5 -7 11 -3 8 5 8 1 0 -13 -6 -11 -7 -24 -3 -28 4 -5 2
-5 -5 -1 -7 4 -9 14 -6 23 5 12 3 14 -7 8 -8 -5 -11 -4 -6 3 3 5 0 13 -6 15
-8 3 -6 6 5 6 9 1 17 -4 17 -10z m726 -1 c3 -4 -1 -5 -10 -4 -8 1 -18 5 -22 8
-3 4 1 5 10 4 8 -1 18 -5 22 -8z m-415 -30 c6 1 8 -2 5 -7 -10 -16 -42 -1 -42
20 0 19 1 20 14 2 7 -10 18 -17 23 -15z m172 7 c-7 -21 -12 -19 -10 4 0 11 5
18 9 15 4 -3 5 -11 1 -19z m415 14 c-2 -6 3 -14 11 -17 8 -2 11 0 8 5 -9 15
32 8 46 -7 10 -12 9 -12 -4 -2 -8 6 -20 8 -25 3 -5 -5 -25 -11 -44 -15 -24 -4
-30 -3 -20 4 8 5 16 14 16 20 2 17 4 20 9 20 3 0 4 -5 3 -11z m113 -6 c13 -16
12 -17 -3 -4 -17 13 -22 21 -14 21 2 0 10 -8 17 -17z m-781 -3 c0 -5 -5 -10
-11 -10 -5 0 -7 5 -4 10 3 6 8 10 11 10 2 0 4 -4 4 -10z m170 -11 c0 -18 -2
-19 -15 -9 -12 10 -15 10 -15 0 0 -9 -3 -10 -13 -1 -8 6 -18 7 -22 3 -5 -4 -5
-1 -1 6 4 7 10 11 14 8 4 -2 16 0 27 5 11 4 21 8 23 8 1 1 2 -9 2 -20z m-277
-16 c-7 -2 -19 -2 -25 0 -7 3 -2 5 12 5 14 0 19 -2 13 -5z"/>
<path d="M260 905 c0 -9 31 -34 42 -35 4 0 5 7 1 15 -3 9 -8 13 -11 11 -3 -3
-11 -1 -19 5 -7 6 -13 8 -13 4z"/>
<path d="M1110 904 c0 -8 5 -12 10 -9 6 3 10 10 10 16 0 5 -4 9 -10 9 -5 0
-10 -7 -10 -16z"/>
<path d="M920 841 c0 -5 5 -13 10 -16 6 -3 10 -2 10 4 0 5 -4 13 -10 16 -5 3
-10 2 -10 -4z"/>
<path d="M631 764 c0 -11 3 -14 6 -6 3 7 2 16 -1 19 -3 4 -6 -2 -5 -13z"/>
<path d="M910 490 c0 -5 5 -10 11 -10 5 0 7 5 4 10 -3 6 -8 10 -11 10 -2 0 -4
-4 -4 -10z"/>
<path d="M610 56 c0 -2 7 -7 16 -10 8 -3 12 -2 9 4 -6 10 -25 14 -25 6z"/>
</g>
</svg>
